PathFileType	4	(X/Y/Z)	Patient4_TMGait_0pt5_01_left_06.trc.trc
DataRate	CameraRate	NumFrames	NumMarkers	Units	OrigDataRate	OrigDataStartFrame	OrigNumFrames
71.065989847716	71.065989847716	4	33	mm	71.065989847716	1	       141
Frame#	Time	L.ASIS			Sacral			L.Shoulder			Chest			R.Shoulder			Neck			R.ASIS			R.Thigh.Superior			R.Thigh.Lateral			R.Thigh.Inferior			R.Patella			L.Thigh.Superior			L.Thigh.Lateral			L.Thigh.Inferior			L.Patella			L.Shank.Superior			L.Shank.Lateral			L.Shank.Inferior			R.Shank.Superior			R.Shank.Lateral			R.Shank.Inferior			R.Heel			R.Midfoot.Superior			R.Midfoot.Lateral			R.Toe			L.Heel			L.Midfoot.Lateral			L.Midfoot.Superior			L.Toe			L.Elbow			L.Wrist			R.Elbow			R.Wrist			
		X1	Y1	Z1	X2	Y2	Z2	X3	Y3	Z3	X4	Y4	Z4	X5	Y5	Z5	X6	Y6	Z6	X7	Y7	Z7	X8	Y8	Z8	X9	Y9	Z9	X10	Y10	Z10	X11	Y11	Z11	X12	Y12	Z12	X13	Y13	Z13	X14	Y14	Z14	X15	Y15	Z15	X16	Y16	Z16	X17	Y17	Z17	X18	Y18	Z18	X19	Y19	Z19	X20	Y20	Z20	X21	Y21	Z21	X22	Y22	Z22	X23	Y23	Z23	X24	Y24	Z24	X25	Y25	Z25	X26	Y26	Z26	X27	Y27	Z27	X28	Y28	Z28	X29	Y29	Z29	X30	Y30	Z30	X31	Y31	Z31	X32	Y32	Z32	X33	Y33	Z33	

1	7.980000000000	718.348063644646	974.679673776646	381.234383865063	513.090888009888	1009.533555544585	553.023630358001	662.509201182070	1450.863475387902	386.225964814112	777.180379435479	1374.004978388336	536.345695592095	702.802560725357	1436.034211029097	719.689295508720	671.949010821275	1504.113366540502	539.696170444432	749.768337030086	947.557497678248	653.683945799690	778.595015768355	743.764915545946	619.951168718886	694.332645066099	636.306021761496	679.248341652989	767.730996825847	582.575613049691	597.932480061245	763.378997871394	493.568256030837	601.678813839660	793.647180676090	780.273329185476	393.859025488943	730.354960084259	656.495584682363	321.177399073468	835.413325313011	588.643631640135	366.574442929826	846.292967638194	503.112798522399	358.589484060946	791.365809161089	432.026112068317	356.133178315275	657.845170407169	362.453356360293	317.467004432782	677.173182687285	232.827228009704	370.476095492412	733.122556043373	406.383796362690	604.118928772052	658.140564492453	302.920946974111	660.802956096905	697.820686509390	209.412461188173	593.888294896165	556.027796029620	47.517364124447	559.053268837295	731.836019170379	98.206536400376	590.078033978512	642.912593085427	36.983488762726	628.868805606470	850.479875408205	39.669103772343	608.941227972264	507.727334259106	123.068263762903	421.188636286963	566.759151917697	99.738136865285	332.912787371707	668.138647385734	132.332343140609	346.399706271074	767.858002653544	46.531653785805	302.937867205081	636.470590063552	1097.822154663201	262.970109905098	743.149279654356	859.192111948431	245.352225695628	747.158587027541	1097.827865652132	846.406889838791	973.766570189034	972.548607698041	844.742626901674	
2	7.994071428571	716.861165094810	974.444003099492	381.547302425983	512.407125764679	1009.372764732924	553.865690152089	661.324935228271	1450.849534185196	387.070241539213	776.345344078409	1373.759381751480	536.756902433927	702.552344189595	1435.585581865641	720.389112633483	671.110472148953	1503.905973785751	540.601843869554	748.854356205262	947.323627921088	653.938014839837	776.987743550867	743.505994336030	620.127363142284	692.472973810313	636.191964978746	679.666109777039	765.512169575294	582.228120201302	598.323391346232	760.720829628096	493.235008773275	602.113346504209	792.415945756026	780.567907668409	393.869976854741	729.571586678382	656.705439465769	320.993477701115	834.525486075238	589.169522012062	366.849736138067	846.421557459679	504.646289375558	358.433151348956	793.667831923227	432.955424946714	355.476264508403	662.696582722096	359.278582818478	316.521388963117	686.563020445204	230.177510441142	368.757925705167	730.184093437521	406.134731554784	604.490600538557	654.760279315486	302.899747616204	661.094293548098	694.179267332206	209.305677861682	594.121480739851	551.996310145645	47.625575050660	559.108754119072	727.811035636939	98.199196900047	590.189451375982	638.831176089676	36.962497517681	628.878923682814	846.401145437215	39.591590347282	608.945158500759	521.430659638563	114.549519961673	419.107250618074	580.856809386168	93.772430687628	330.572646120491	680.889245694909	129.720508654860	344.110147072230	783.187633050244	47.798578892753	299.929764150045	632.059613694857	1098.287709249339	263.443813029009	730.927162911517	857.192577150402	244.442991803665	750.136848988952	1097.916618724694	846.620589420048	979.542874119732	978.566390154533	844.157179471424	
3	8.008142857143	715.140759778869	974.153631991046	381.889580738655	511.539283485743	1009.175239350228	554.797434246922	659.941569573513	1450.848002190783	388.046907177855	775.339725298232	1373.465722455853	537.249505883946	702.187964003737	1435.039322006827	721.218203648612	670.111432205675	1503.665707033413	541.666917893239	747.763694914015	947.070817645269	654.240964630514	775.089290156278	743.172777421100	620.410006579956	690.196725893673	636.035515762212	680.144354899545	762.833012514537	581.791956708113	598.793689717373	757.496272888309	492.809149227933	602.596045889538	790.774011126959	780.762957337162	393.943083110816	728.450944171902	656.878895565974	320.752572532043	833.232055701419	589.661560061409	367.268266368037	846.374099337476	506.431719632641	358.358894184512	796.361559414806	434.145697782895	354.745112916123	668.833889970737	355.475760335987	315.299618108312	698.279206778340	227.272828247278	366.668312913860	726.612746627425	405.807794416792	604.905773288588	650.654246104118	302.857042862549	661.435853747111	689.713276471399	209.147008827658	594.378284634519	547.018226452817	47.739966359310	559.182178141643	722.845102241919	98.186122639937	590.326867279902	633.799550198969	36.936874470922	628.899220758436	841.380005240219	39.501100978401	608.978504834559	538.724068996045	104.636130802993	416.444512639908	598.648581041697	86.948826719089	327.677175106640	696.896376877498	126.941146342220	341.353479856492	802.246595376860	49.818523833545	296.489823612220	626.578877085822	1098.942029446095	263.926230873632	716.005657480701	855.096083866101	243.442988558405	753.720557632061	1098.010654891580	846.745536962179	986.403915203123	986.120584656311	843.242415026704	
4	8.022214285714	713.241211679444	973.799783522984	382.232146128166	510.482350116787	1008.936656483104	555.747019785239	658.407114900666	1450.839113493510	389.092022467929	774.180883999496	1373.112871805717	537.787648090519	701.686142531224	1434.393743789724	722.120203272893	668.973681959289	1503.381198069544	542.826769955047	746.507431134884	946.793145728231	654.568271231108	772.941676047657	742.757723245906	620.784907954025	687.540346560711	635.828103207340	680.641724496112	759.745809826510	581.267026160113	599.307752997515	753.771758665005	492.291154623732	603.081572944659	788.719059340474	780.796942092153	394.076652977871	726.957705861684	656.979929633148	320.448734004730	831.501902321359	590.057364611881	367.808050763661	846.074539579239	508.389387587866	358.392566160596	799.310841063668	435.590945232208	353.979632564344	676.138556698552	351.212326229293	313.809285763714	712.034717253674	224.350993909567	364.274327724837	722.484683701992	405.400274601889	605.325505536023	645.915752099688	302.786797933595	661.795964227147	684.517100606401	208.932047505760	594.630609581756	541.196862444811	47.852493176117	559.263463810054	717.040740648044	98.165486853172	590.476437366061	627.924068491333	36.907804635261	628.921647426342	835.520051554823	39.400688774533	609.037116221240	559.244302256408	93.863600980599	413.239073535860	619.784399732046	79.674200783269	324.318782241616	715.814988567547	124.249901792300	338.243209809016	824.567150971024	52.703866464721	292.861683845261	620.135551641151	1099.780820335493	264.373158687446	698.814450363404	853.065697106582	242.428913884278	757.765397629269	1098.089315330746	846.702936585143	994.041590080036	995.049508069513	841.924887726532	
